<svg width="16" height="18" viewBox="0 0 16 18" fill="none" xmlns="http://www.w3.org/2000/svg">
<path d="M4.7189 3.69231C4.38249 3.69231 4.10352 3.41333 4.10352 3.07692V0.615385C4.10352 0.278974 4.38249 0 4.7189 0C5.05531 0 5.33428 0.278974 5.33428 0.615385V3.07692C5.33428 3.41333 5.05531 3.69231 4.7189 3.69231Z" fill="black" fill-opacity="0.72"/>
<path d="M11.2814 3.69231C10.945 3.69231 10.666 3.41333 10.666 3.07692V0.615385C10.666 0.278974 10.945 0 11.2814 0C11.6178 0 11.8968 0.278974 11.8968 0.615385V3.07692C11.8968 3.41333 11.6178 3.69231 11.2814 3.69231Z" fill="black" fill-opacity="0.72"/>
<path d="M10.4615 17.641H5.53846C0.92718 17.641 0 15.4666 0 11.9548V6.89225C0 3.00302 1.31282 1.41943 4.68513 1.23071H11.2821H11.3149C14.6872 1.41943 16 3.00302 16 6.89225V11.9548C16 15.4666 15.0728 17.641 10.4615 17.641ZM4.71795 2.46148C2.42051 2.59276 1.23077 3.31482 1.23077 6.89225V11.9548C1.23077 15.0974 1.82974 16.4102 5.53846 16.4102H10.4615C14.1703 16.4102 14.7692 15.0974 14.7692 11.9548V6.89225C14.7692 3.32302 13.5877 2.59276 11.2656 2.46148H4.71795Z" fill="black" fill-opacity="0.72"/>
<path d="M15.1794 14.0308H0.820463C0.484052 14.0308 0.205078 13.7518 0.205078 13.4154C0.205078 13.079 0.484052 12.8 0.820463 12.8H15.1794C15.5158 12.8 15.7948 13.079 15.7948 13.4154C15.7948 13.7518 15.5158 14.0308 15.1794 14.0308Z" fill="black" fill-opacity="0.72"/>
<path d="M8.0005 5.74353C6.99127 5.74353 6.13794 6.29327 6.13794 7.35994C6.13794 7.86866 6.37589 8.2543 6.73691 8.50045C6.2364 8.79584 5.94922 9.27173 5.94922 9.82968C5.94922 10.8471 6.72871 11.4789 8.0005 11.4789C9.26409 11.4789 10.0518 10.8471 10.0518 9.82968C10.0518 9.27173 9.7646 8.78763 9.25589 8.50045C9.62512 8.24609 9.85486 7.86866 9.85486 7.35994C9.85486 6.29327 9.00973 5.74353 8.0005 5.74353ZM8.0005 8.07379C7.57383 8.07379 7.26204 7.81943 7.26204 7.41738C7.26204 7.00712 7.57383 6.76917 8.0005 6.76917C8.42717 6.76917 8.73896 7.00712 8.73896 7.41738C8.73896 7.81943 8.42717 8.07379 8.0005 8.07379ZM8.0005 10.4615C7.45896 10.4615 7.06512 10.1907 7.06512 9.6984C7.06512 9.20609 7.45896 8.94353 8.0005 8.94353C8.54204 8.94353 8.93589 9.2143 8.93589 9.6984C8.93589 10.1907 8.54204 10.4615 8.0005 10.4615Z" fill="black" fill-opacity="0.72"/>
</svg>
