<svg width="19" height="18" viewBox="0 0 19 18" fill="none" xmlns="http://www.w3.org/2000/svg">
<path d="M5.18545 12.1866C4.89022 12.1866 4.59499 12.1128 4.32436 11.957C3.7749 11.6454 3.44686 11.0876 3.44686 10.4644V7.53662C3.44686 7.3234 3.30744 6.96261 3.13522 6.75759L1.06857 4.58432C0.683128 4.20707 0.404297 3.55101 0.404297 3.05075V1.77962C0.404297 0.787305 1.15877 0 2.12647 0H9.42531C10.3766 0 11.1475 0.770895 11.1475 1.7222V2.93595C11.1475 3.57562 10.7785 4.28089 10.4176 4.64173L8.01475 6.76576C7.82613 6.92158 7.67032 7.29888 7.67032 7.57771V9.9559C7.67032 10.5218 7.32588 11.1533 6.87483 11.4239L6.12032 11.9159C5.82508 12.0963 5.50529 12.1866 5.18545 12.1866ZM2.12647 1.23835C1.84764 1.23835 1.63444 1.47619 1.63444 1.78783V3.05896C1.63444 3.19838 1.77386 3.55102 1.95428 3.73144L4.07009 5.95388C4.38172 6.33932 4.68515 6.97079 4.68515 7.53662V10.4644C4.68515 10.7104 4.84102 10.8335 4.93943 10.8827C5.07065 10.9565 5.28383 10.9975 5.46425 10.8827L6.22694 10.3905C6.32535 10.3331 6.44017 10.1036 6.44017 9.96418V7.58583C6.44017 6.93798 6.76 6.2245 7.21106 5.83906L9.57293 3.74783C9.72055 3.60021 9.91737 3.19838 9.91737 2.93595V1.7222C9.91737 1.45157 9.69594 1.23014 9.42531 1.23014H2.12647V1.23835Z" fill="black" fill-opacity="0.72"/>
<path d="M11.6806 17.64H6.76001C2.30691 17.64 0.404297 15.7374 0.404297 11.2843V8.824C0.404297 8.48776 0.683128 8.20893 1.01937 8.20893C1.3556 8.20893 1.63444 8.48776 1.63444 8.824V11.2843C1.63444 15.0649 2.97939 16.4099 6.76001 16.4099H11.6806C15.4612 16.4099 16.8061 15.0649 16.8061 11.2843V6.36372C16.8061 3.98545 16.2485 2.60769 14.9937 1.89421C14.8625 1.8204 14.4279 1.62359 13.1813 1.42677C12.8451 1.37756 12.6155 1.05771 12.6729 0.721474C12.7303 0.385236 13.0501 0.155618 13.3782 0.213024C14.4525 0.385244 15.1824 0.582058 15.6006 0.819884C17.2572 1.76299 18.0363 3.5262 18.0363 6.36372V11.2843C18.0363 15.7374 16.1337 17.64 11.6806 17.64Z" fill="black" fill-opacity="0.72"/>
<path d="M14.1413 10.2592H10.0409C9.70461 10.2592 9.42578 9.98036 9.42578 9.64412C9.42578 9.30788 9.70461 9.02905 10.0409 9.02905H14.1413C14.4776 9.02905 14.7564 9.30788 14.7564 9.64412C14.7564 9.98036 14.4776 10.2592 14.1413 10.2592Z" fill="black" fill-opacity="0.72"/>
<path d="M14.1409 13.5396H8.40023C8.06399 13.5396 7.78516 13.2608 7.78516 12.9245C7.78516 12.5883 8.06399 12.3094 8.40023 12.3094H14.1409C14.4771 12.3094 14.7559 12.5883 14.7559 12.9245C14.7559 13.2608 14.4771 13.5396 14.1409 13.5396Z" fill="black" fill-opacity="0.72"/>
</svg>
