<svg width="32" height="32" viewBox="0 0 32 32" fill="none" xmlns="http://www.w3.org/2000/svg">
<path d="M16 0L25.4046 3.05573L31.2169 11.0557V20.9443L25.4046 28.9443L16 32L6.59544 28.9443L0.783095 20.9443V11.0557L6.59544 3.05573L16 0Z" fill="#D2F0FA"/>
<path d="M15 20C14.8674 20 14.7402 20.0527 14.6464 20.1464C14.5527 20.2402 14.5 20.3674 14.5 20.5C14.5 20.6326 14.5527 20.7598 14.6464 20.8536C14.7402 20.9473 14.8674 21 15 21H17C17.1326 21 17.2598 20.9473 17.3536 20.8536C17.4473 20.7598 17.5 20.6326 17.5 20.5C17.5 20.3674 17.4473 20.2402 17.3536 20.1464C17.2598 20.0527 17.1326 20 17 20H15ZM13.75 9C13.2859 9 12.8408 9.18437 12.5126 9.51256C12.1844 9.84075 12 10.2859 12 10.75V21.25C12 22.216 12.784 23 13.75 23H18.25C18.7141 23 19.1592 22.8156 19.4874 22.4874C19.8156 22.1592 20 21.7141 20 21.25V10.75C20 10.2859 19.8156 9.84075 19.4874 9.51256C19.1592 9.18437 18.7141 9 18.25 9H13.75ZM13 10.75C13 10.5511 13.079 10.3603 13.2197 10.2197C13.3603 10.079 13.5511 10 13.75 10H18.25C18.4489 10 18.6397 10.079 18.7803 10.2197C18.921 10.3603 19 10.5511 19 10.75V21.25C19 21.4489 18.921 21.6397 18.7803 21.7803C18.6397 21.921 18.4489 22 18.25 22H13.75C13.5511 22 13.3603 21.921 13.2197 21.7803C13.079 21.6397 13 21.4489 13 21.25V10.75Z" fill="black"/>
</svg>
