<svg width="32" height="32" viewBox="0 0 32 32" fill="none" xmlns="http://www.w3.org/2000/svg">
<path d="M15 2.76403C14.192 2.9147 13.2427 3.24003 11.784 3.74003L11.02 4.00003C7.01067 5.37336 5.00667 6.0587 4.504 6.77603C4.01067 7.47736 4 9.53336 4 13.6134L15 9.9467V2.76403ZM15 12.0534L4 15.72V15.988C4 23.5054 9.652 27.1534 13.1987 28.7027C13.8787 29 14.3187 29.192 15 29.2787V12.0534ZM17 29.28V12.0534L28 15.72V15.988C28 23.5054 22.348 27.1534 18.8013 28.7027C18.1213 29 17.6813 29.1934 17 29.28ZM17 9.9467V2.7627C17.808 2.91336 18.7573 3.2387 20.216 3.7387L20.98 4.00003C24.9893 5.37203 26.9933 6.05736 27.496 6.7747C27.9893 7.47603 28 9.53203 28 13.6107L17 9.9467Z" fill="#4BBAC1"/>
</svg>
