<svg width="18" height="18" viewBox="0 0 18 18" fill="none" xmlns="http://www.w3.org/2000/svg">
<path d="M2.72895 17.64C2.55634 17.64 2.3908 17.5714 2.26875 17.4494C2.14669 17.3273 2.07812 17.1618 2.07812 16.9892V0.650826C2.07812 0.478217 2.14669 0.312676 2.26875 0.190623C2.3908 0.068569 2.55634 0 2.72895 0C2.90156 0 3.0671 0.068569 3.18916 0.190623C3.31121 0.312676 3.37978 0.478217 3.37978 0.650826V16.9892C3.37978 17.1618 3.31121 17.3273 3.18916 17.4494C3.0671 17.5714 2.90156 17.64 2.72895 17.64Z" fill="black" fill-opacity="0.72"/>
<path d="M4.76992 13.9798H0.687936C0.515326 13.9798 0.349786 13.9112 0.227732 13.7891C0.105678 13.6671 0.0371094 13.5015 0.0371094 13.3289C0.0371094 13.1563 0.105678 12.9908 0.227732 12.8687C0.349786 12.7467 0.515326 12.6781 0.687936 12.6781H4.76992C4.94253 12.6781 5.10807 12.7467 5.23012 12.8687C5.35218 12.9908 5.42075 13.1563 5.42075 13.3289C5.42075 13.5015 5.35218 13.6671 5.23012 13.7891C5.10807 13.9112 4.94253 13.9798 4.76992 13.9798ZM15.3081 17.64C15.1355 17.64 14.97 17.5714 14.8479 17.4494C14.7258 17.3273 14.6573 17.1618 14.6573 16.9892V0.650826C14.6573 0.478217 14.7258 0.312676 14.8479 0.190623C14.97 0.068569 15.1355 0 15.3081 0C15.4807 0 15.6463 0.068569 15.7683 0.190623C15.8904 0.312676 15.9589 0.478217 15.9589 0.650826V16.9892C15.9589 17.1618 15.8904 17.3273 15.7683 17.4494C15.6463 17.5714 15.4807 17.64 15.3081 17.64Z" fill="black" fill-opacity="0.72"/>
<path d="M17.3486 13.9798H13.2666C13.094 13.9798 12.9285 13.9112 12.8064 13.7891C12.6844 13.6671 12.6158 13.5015 12.6158 13.3289C12.6158 13.1563 12.6844 12.9908 12.8064 12.8687C12.9285 12.7467 13.094 12.6781 13.2666 12.6781H17.3486C17.5212 12.6781 17.6867 12.7467 17.8088 12.8687C17.9309 12.9908 17.9994 13.1563 17.9994 13.3289C17.9994 13.5015 17.9309 13.6671 17.8088 13.7891C17.6867 13.9112 17.5212 13.9798 17.3486 13.9798ZM9.01801 17.64C8.8454 17.64 8.67986 17.5714 8.55781 17.4494C8.43576 17.3273 8.36719 17.1618 8.36719 16.9892V0.650826C8.36719 0.478217 8.43576 0.312676 8.55781 0.190623C8.67986 0.068569 8.8454 0 9.01801 0C9.19062 0 9.35616 0.068569 9.47822 0.190623C9.60027 0.312676 9.66884 0.478217 9.66884 0.650826V16.9892C9.66884 17.1618 9.60027 17.3273 9.47822 17.4494C9.35616 17.5714 9.19062 17.64 9.01801 17.64Z" fill="black" fill-opacity="0.72"/>
<path d="M11.059 4.96193H6.977C6.80439 4.96193 6.63885 4.89336 6.51679 4.77131C6.39474 4.64925 6.32617 4.48371 6.32617 4.3111C6.32617 4.13849 6.39474 3.97295 6.51679 3.8509C6.63885 3.72885 6.80439 3.66028 6.977 3.66028H11.059C11.2316 3.66028 11.3971 3.72885 11.5192 3.8509C11.6412 3.97295 11.7098 4.13849 11.7098 4.3111C11.7098 4.48371 11.6412 4.64925 11.5192 4.77131C11.3971 4.89336 11.2316 4.96193 11.059 4.96193Z" fill="black" fill-opacity="0.72"/>
</svg>
