<svg width="11" height="12" viewBox="0 0 11 12" fill="none" xmlns="http://www.w3.org/2000/svg">
<g clip-path="url(#clip0_215_2719)">
<path d="M10.7097 5.96697C10.7097 3.04481 8.34079 0.675903 5.41863 0.675903C2.49647 0.675903 0.127563 3.04481 0.127563 5.96697C0.127563 8.60787 2.06244 10.7968 4.5919 11.1938V7.49642H3.24847V5.96697H4.5919V4.80128C4.5919 3.47521 5.38184 2.74273 6.59044 2.74273C7.16931 2.74273 7.77481 2.84607 7.77481 2.84607V4.14817H7.10764C6.45035 4.14817 6.24536 4.55603 6.24536 4.97448V5.96697H7.7128L7.47822 7.49642H6.24536V11.1938C8.77482 10.7968 10.7097 8.60791 10.7097 5.96697Z" fill="#1877F2"/>
<path d="M7.47829 7.49637L7.71287 5.96692H6.24543V4.97443C6.24543 4.55594 6.45042 4.14812 7.10771 4.14812H7.77488V2.84602C7.77488 2.84602 7.16938 2.74268 6.59046 2.74268C5.38191 2.74268 4.59197 3.47516 4.59197 4.80123V5.96692H3.24854V7.49637H4.59197V11.1937C4.86546 11.2366 5.14187 11.2581 5.4187 11.258C5.69553 11.2581 5.97194 11.2366 6.24543 11.1937V7.49637H7.47829Z" fill="white"/>
</g>
<defs>
<clipPath id="clip0_215_2719">
<rect width="10.5821" height="10.5821" fill="white" transform="translate(0.127563 0.675903)"/>
</clipPath>
</defs>
</svg>
