<svg width="24" height="24" viewBox="0 0 24 24" fill="none" xmlns="http://www.w3.org/2000/svg">
<g clip-path="url(#clip0_162_2729)">
<mask id="mask0_162_2729" style="mask-type:luminance" maskUnits="userSpaceOnUse" x="0" y="0" width="24" height="24">
<path d="M0 0H24V24H0V0Z" fill="white"/>
<path fill-rule="evenodd" clip-rule="evenodd" d="M10.1538 11.0769C10.6434 11.0769 11.113 10.8824 11.4592 10.5362C11.8054 10.19 11.9999 9.7204 11.9999 9.23077C11.9999 8.74114 11.8054 8.27156 11.4592 7.92534C11.113 7.57912 10.6434 7.38462 10.1538 7.38462C9.66414 7.38462 9.19456 7.57912 8.84834 7.92534C8.50212 8.27156 8.30762 8.74114 8.30762 9.23077C8.30762 9.7204 8.50212 10.19 8.84834 10.5362C9.19456 10.8824 9.66414 11.0769 10.1538 11.0769Z" fill="black"/>
<path d="M8.95109 12.0757C9.03697 11.96 9.14873 11.866 9.27744 11.8012C9.40616 11.7365 9.54824 11.7028 9.69233 11.7028C9.83641 11.7028 9.9785 11.7365 10.1072 11.8012C10.2359 11.866 10.3477 11.96 10.4336 12.0757L12.1966 14.4498C12.2986 14.5872 12.3604 14.7503 12.3751 14.9208C12.3898 15.0913 12.3568 15.2625 12.2798 15.4153C12.2028 15.5681 12.0849 15.6965 11.9391 15.7862C11.7934 15.8759 11.6256 15.9233 11.4545 15.9231H7.93017C7.75914 15.9231 7.59146 15.8756 7.44586 15.7858C7.30025 15.6961 7.18244 15.5677 7.10557 15.4149C7.0287 15.2621 6.99578 15.091 7.01051 14.9205C7.02523 14.7501 7.087 14.5872 7.18894 14.4498L8.95109 12.0757Z" fill="black"/>
<path fill-rule="evenodd" clip-rule="evenodd" d="M9.69227 13.4003L8.84673 14.5385H10.5378L9.69227 13.4003ZM10.4335 12.0757C10.3476 11.96 10.2359 11.866 10.1072 11.8012C9.97844 11.7365 9.83636 11.7028 9.69227 11.7028C9.54819 11.7028 9.4061 11.7365 9.27739 11.8012C9.14868 11.866 9.03691 11.96 8.95104 12.0757L7.18797 14.4498C7.08598 14.5872 7.0242 14.7503 7.00951 14.9208C6.99482 15.0913 7.02781 15.2625 7.1048 15.4153C7.18178 15.5681 7.29973 15.6965 7.44547 15.7862C7.59121 15.8759 7.759 15.9233 7.93012 15.9231H11.4544C11.6255 15.9231 11.7931 15.8756 11.9387 15.7858C12.0843 15.6961 12.2022 15.5677 12.279 15.4149C12.3559 15.2621 12.3888 15.091 12.3741 14.9205C12.3594 14.7501 12.2976 14.5872 12.1957 14.4498L10.4335 12.0757Z" fill="black"/>
<path d="M12.456 11.1905C12.5426 11.0904 12.6498 11.0101 12.7702 10.9551C12.8906 10.9001 13.0214 10.8716 13.1538 10.8716C13.2862 10.8716 13.417 10.9001 13.5374 10.9551C13.6579 11.0101 13.765 11.0904 13.8517 11.1905L16.6274 14.3954C16.7433 14.5291 16.8183 14.6934 16.8435 14.8686C16.8687 15.0438 16.843 15.2225 16.7695 15.3835C16.6959 15.5445 16.5777 15.681 16.4287 15.7767C16.2798 15.8723 16.1065 15.9231 15.9295 15.9231H10.3781C10.2011 15.9231 10.0278 15.8723 9.87892 15.7767C9.72999 15.681 9.61171 15.5445 9.53816 15.3835C9.46462 15.2225 9.43892 15.0438 9.46411 14.8686C9.48931 14.6934 9.56435 14.5291 9.68029 14.3954L12.456 11.1905Z" fill="black"/>
<path fill-rule="evenodd" clip-rule="evenodd" d="M13.1538 12.4994L11.388 14.5385H14.9197L13.1538 12.4994ZM13.8517 11.1905C13.765 11.0904 13.6579 11.0101 13.5374 10.9551C13.417 10.9001 13.2862 10.8716 13.1538 10.8716C13.0214 10.8716 12.8906 10.9001 12.7702 10.9551C12.6498 11.0101 12.5426 11.0904 12.456 11.1905L9.68029 14.3954C9.56435 14.5291 9.48931 14.6934 9.46411 14.8686C9.43892 15.0438 9.46462 15.2225 9.53816 15.3835C9.61171 15.5445 9.72999 15.681 9.87892 15.7767C10.0278 15.8723 10.2011 15.9231 10.3781 15.9231H15.9295C16.1065 15.9231 16.2798 15.8723 16.4287 15.7767C16.5777 15.681 16.6959 15.5445 16.7695 15.3835C16.843 15.2225 16.8687 15.0438 16.8435 14.8686C16.8183 14.6934 16.7433 14.5291 16.6274 14.3954L13.8517 11.1905Z" fill="black"/>
<path fill-rule="evenodd" clip-rule="evenodd" d="M5.99996 6V18H18V6H5.99996ZM5.53842 4.15385C5.1712 4.15385 4.81902 4.29973 4.55935 4.55939C4.29969 4.81906 4.15381 5.17124 4.15381 5.53846V18.4615C4.15381 18.8288 4.29969 19.1809 4.55935 19.4406C4.81902 19.7003 5.1712 19.8462 5.53842 19.8462H18.4615C18.8287 19.8462 19.1809 19.7003 19.4406 19.4406C19.7002 19.1809 19.8461 18.8288 19.8461 18.4615V5.53846C19.8461 5.17124 19.7002 4.81906 19.4406 4.55939C19.1809 4.29973 18.8287 4.15385 18.4615 4.15385H5.53842Z" fill="black"/>
</mask>
<g mask="url(#mask0_162_2729)">
<path d="M12 24C18.6274 24 24 18.6274 24 12C24 5.37258 18.6274 0 12 0C5.37258 0 0 5.37258 0 12C0 18.6274 5.37258 24 12 24Z" fill="white" fill-opacity="0.88"/>
</g>
</g>
<defs>
<clipPath id="clip0_162_2729">
<rect width="24" height="24" fill="white"/>
</clipPath>
</defs>
</svg>
