<svg width="12" height="12" viewBox="0 0 12 12" fill="none" xmlns="http://www.w3.org/2000/svg">
<g clip-path="url(#clip0_215_2729)">
<path d="M8.91845 0.759033H3.38505C2.03681 0.759033 0.943848 1.852 0.943848 3.20024V8.73364C0.943848 10.0819 2.03681 11.1748 3.38505 11.1748H8.91845C10.2667 11.1748 11.3597 10.0819 11.3597 8.73364V3.20024C11.3597 1.852 10.2667 0.759033 8.91845 0.759033Z" fill="url(#paint0_radial_215_2729)"/>
<path d="M8.91845 0.759033H3.38505C2.03681 0.759033 0.943848 1.852 0.943848 3.20024V8.73364C0.943848 10.0819 2.03681 11.1748 3.38505 11.1748H8.91845C10.2667 11.1748 11.3597 10.0819 11.3597 8.73364V3.20024C11.3597 1.852 10.2667 0.759033 8.91845 0.759033Z" fill="url(#paint1_radial_215_2729)"/>
<path d="M6.15211 1.89819C5.04714 1.89819 4.90844 1.90304 4.47447 1.92277C4.04132 1.94262 3.74565 2.01118 3.48697 2.1118C3.21933 2.21571 2.99234 2.35474 2.7662 2.58096C2.53986 2.80714 2.40083 3.03413 2.29659 3.30164C2.19569 3.56041 2.12705 3.8562 2.10756 4.28915C2.08815 4.72316 2.08307 4.8619 2.08307 5.96691C2.08307 7.07192 2.08795 7.21018 2.10764 7.64414C2.12758 8.07729 2.19614 8.37296 2.29667 8.63165C2.40067 8.89929 2.5397 9.12628 2.76591 9.35242C2.99201 9.57876 3.219 9.71811 3.48644 9.82202C3.74533 9.92264 4.04104 9.9912 4.47411 10.0111C4.90811 10.0308 5.04669 10.0356 6.15162 10.0356C7.25672 10.0356 7.39497 10.0308 7.82893 10.0111C8.26208 9.9912 8.55808 9.92264 8.81697 9.82202C9.08449 9.71811 9.31115 9.57876 9.53721 9.35242C9.76355 9.12628 9.90253 8.89929 10.0068 8.63177C10.1068 8.37296 10.1755 8.07721 10.1958 7.64422C10.2153 7.21026 10.2204 7.07192 10.2204 5.96691C10.2204 4.8619 10.2153 4.72324 10.1958 4.28923C10.1755 3.85608 10.1068 3.56045 10.0068 3.30176C9.90253 3.03413 9.76355 2.80714 9.53721 2.58096C9.31091 2.35466 9.08457 2.21563 8.81673 2.11184C8.55735 2.01118 8.26152 1.94258 7.82836 1.92277C7.39436 1.90304 7.25619 1.89819 6.15085 1.89819H6.15211ZM5.78711 2.63141C5.89546 2.63125 6.01634 2.63141 6.15211 2.63141C7.23849 2.63141 7.36722 2.63532 7.79622 2.6548C8.19292 2.67295 8.40823 2.73923 8.55165 2.79493C8.74154 2.86865 8.8769 2.95682 9.01923 3.09927C9.16163 3.24167 9.24976 3.37728 9.32368 3.56716C9.37938 3.71038 9.44574 3.9257 9.46381 4.32239C9.4833 4.75131 9.48753 4.88013 9.48753 5.96597C9.48753 7.05182 9.4833 7.18068 9.46381 7.60956C9.44566 8.00625 9.37938 8.22157 9.32368 8.36482C9.24996 8.55471 9.16163 8.68991 9.01923 8.83223C8.87682 8.97464 8.74162 9.06277 8.55165 9.13653C8.40839 9.19248 8.19292 9.25859 7.79622 9.27674C7.3673 9.29623 7.23849 9.30046 6.15211 9.30046C5.06569 9.30046 4.93692 9.29623 4.50804 9.27674C4.11134 9.25843 3.89603 9.19215 3.75249 9.13645C3.56264 9.06268 3.42699 8.97456 3.28459 8.83215C3.14219 8.68975 3.05406 8.55447 2.98013 8.3645C2.92443 8.22124 2.85807 8.00593 2.84001 7.60923C2.82052 7.18031 2.81661 7.0515 2.81661 5.96496C2.81661 4.87842 2.82052 4.75029 2.84001 4.32137C2.85815 3.92468 2.92443 3.70936 2.98013 3.56594C3.0539 3.37606 3.14219 3.24045 3.28463 3.09805C3.42707 2.95564 3.56264 2.86747 3.75253 2.79359C3.89595 2.73764 4.11134 2.67153 4.50804 2.6533C4.88338 2.63633 5.02883 2.63125 5.78711 2.63039V2.63141ZM8.32397 3.30697C8.05442 3.30697 7.83573 3.52546 7.83573 3.79505C7.83573 4.0646 8.05442 4.28329 8.32397 4.28329C8.59352 4.28329 8.81221 4.0646 8.81221 3.79505C8.81221 3.5255 8.59352 3.30681 8.32397 3.30681V3.30697ZM6.15211 3.87744C4.99823 3.87744 4.06268 4.81299 4.06268 5.96691C4.06268 7.12083 4.99823 8.05593 6.15211 8.05593C7.30603 8.05593 8.24125 7.12083 8.24125 5.96691C8.24125 4.81303 7.30595 3.87744 6.15203 3.87744H6.15211ZM6.15211 4.61066C6.90111 4.61066 7.50836 5.21783 7.50836 5.96691C7.50836 6.71591 6.90111 7.32316 6.15211 7.32316C5.40311 7.32316 4.7959 6.71591 4.7959 5.96691C4.7959 5.21783 5.40307 4.61066 6.15211 4.61066Z" fill="white"/>
</g>
<defs>
<radialGradient id="paint0_radial_215_2729" cx="0" cy="0" r="1" gradientUnits="userSpaceOnUse" gradientTransform="translate(3.71055 11.9771) rotate(-90) scale(10.3228 9.60106)">
<stop stop-color="#FFDD55"/>
<stop offset="0.1" stop-color="#FFDD55"/>
<stop offset="0.5" stop-color="#FF543E"/>
<stop offset="1" stop-color="#C837AB"/>
</radialGradient>
<radialGradient id="paint1_radial_215_2729" cx="0" cy="0" r="1" gradientUnits="userSpaceOnUse" gradientTransform="translate(-0.800841 1.50934) rotate(78.681) scale(4.61437 19.0206)">
<stop stop-color="#3771C8"/>
<stop offset="0.128" stop-color="#3771C8"/>
<stop offset="1" stop-color="#6600FF" stop-opacity="0"/>
</radialGradient>
<clipPath id="clip0_215_2729">
<rect width="10.4158" height="10.4158" fill="white" transform="translate(0.943848 0.759033)"/>
</clipPath>
</defs>
</svg>
