<svg width="32" height="32" viewBox="0 0 32 32" fill="none" xmlns="http://www.w3.org/2000/svg">
<path d="M16 0L25.4046 3.05573L31.2169 11.0557V20.9443L25.4046 28.9443L16 32L6.59544 28.9443L0.783095 20.9443V11.0557L6.59544 3.05573L16 0Z" fill="#D2F0FA"/>
<path d="M10.6725 11.125C10.6187 11.1716 10.5755 11.2292 10.5457 11.2939C10.516 11.3585 10.5004 11.4288 10.5 11.5V22C10.5 22.1326 10.5527 22.2598 10.6464 22.3535C10.7402 22.4473 10.8674 22.5 11 22.5C11.1326 22.5 11.2598 22.4473 11.3536 22.3535C11.4473 22.2598 11.5 22.1326 11.5 22V19.2356C13.1744 17.9131 14.6169 18.6262 16.2781 19.4487C17.3031 19.9556 18.4069 20.5019 19.5906 20.5019C20.4613 20.5019 21.3744 20.205 22.3294 19.3769C22.3832 19.3302 22.4264 19.2727 22.4561 19.208C22.4859 19.1433 22.5015 19.073 22.5019 19.0019V11.5C22.5016 11.404 22.4738 11.3101 22.4217 11.2296C22.3695 11.149 22.2953 11.0851 22.2079 11.0456C22.1204 11.006 22.0234 10.9925 21.9285 11.0066C21.8336 11.0207 21.7447 11.0618 21.6725 11.125C19.9225 12.6394 18.44 11.9056 16.7219 11.055C14.9419 10.1725 12.9237 9.17436 10.6725 11.125ZM21.5 18.7656C19.8256 20.0881 18.3831 19.3744 16.7219 18.5525C15.1594 17.7806 13.4212 16.9194 11.5 18.0275V11.7369C13.1744 10.4144 14.6169 11.1275 16.2781 11.9494C17.8406 12.7212 19.5794 13.5825 21.5 12.4744V18.7656Z" fill="black"/>
</svg>
