<svg width="32" height="32" viewBox="0 0 32 32" fill="none" xmlns="http://www.w3.org/2000/svg">
<path d="M16 0L25.4046 3.05573L31.2169 11.0557V20.9443L25.4046 28.9443L16 32L6.59544 28.9443L0.783095 20.9443V11.0557L6.59544 3.05573L16 0Z" fill="#D2F0FA"/>
<path d="M14.3333 10.6666C14.922 13.293 15.261 18.9456 12.4356 20.206C12.2753 20.3113 11.719 20.4896 10.563 20.3636C9.89431 20.2906 9.13498 21.118 10.1886 22.2546C10.4473 22.534 11.0233 22.822 12.4356 22.5696H15.004C15.646 22.5696 16.7056 21.782 17.7326 19.891C18.1073 19.3656 19.1773 18.2836 20.4616 18.1576C21.2643 18.105 22.741 17.4643 22.2273 15.321C21.3086 13.1686 19.18 11.0986 18.6666 9.33331" stroke="black" stroke-width="1.33333" stroke-linecap="round" stroke-linejoin="round"/>
</svg>
