<svg width="32" height="32" viewBox="0 0 32 32" fill="none" xmlns="http://www.w3.org/2000/svg">
<path d="M16 0L25.4046 3.05573L31.2169 11.0557V20.9443L25.4046 28.9443L16 32L6.59544 28.9443L0.783095 20.9443V11.0557L6.59544 3.05573L16 0Z" fill="#D2F0FA"/>
<path d="M16 14C17.2886 14 18.3333 12.9553 18.3333 11.6666C18.3333 10.378 17.2886 9.33331 16 9.33331C14.7113 9.33331 13.6666 10.378 13.6666 11.6666C13.6666 12.9553 14.7113 14 16 14Z" stroke="black" stroke-width="1.33333" stroke-linecap="round" stroke-linejoin="round"/>
<path d="M9.33331 21.6666C9.33331 18.721 12.0196 16.3333 15.3333 16.3333M18.3333 22L21.6666 18.6666L20.3333 17.3333L17 20.6666V22H18.3333Z" stroke="black" stroke-width="1.33333" stroke-linecap="round" stroke-linejoin="round"/>
</svg>
