<svg width="32" height="32" viewBox="0 0 32 32" fill="none" xmlns="http://www.w3.org/2000/svg">
<path d="M16 0L25.4046 3.05573L31.2169 11.0557V20.9443L25.4046 28.9443L16 32L6.59544 28.9443L0.783095 20.9443V11.0557L6.59544 3.05573L16 0Z" fill="#D2F0FA"/>
<path d="M17.6314 8.73735C17.7894 8.81645 17.9095 8.95505 17.9654 9.12268C18.0213 9.29031 18.0083 9.47327 17.9294 9.63135L17.412 10.6667H20C20.3536 10.6667 20.6928 10.8072 20.9428 11.0572C21.1929 11.3073 21.3334 11.6464 21.3334 12V21.3334C21.3334 21.687 21.1929 22.0261 20.9428 22.2762C20.6928 22.5262 20.3536 22.6667 20 22.6667H12C11.6464 22.6667 11.3073 22.5262 11.0572 22.2762C10.8072 22.0261 10.6667 21.687 10.6667 21.3334V12C10.6667 11.6464 10.8072 11.3073 11.0572 11.0572C11.3073 10.8072 11.6464 10.6667 12 10.6667H14.588L14.0707 9.63135C13.998 9.47408 13.9895 9.2947 14.0468 9.13121C14.1041 8.96773 14.2228 8.83297 14.3778 8.7555C14.5327 8.67802 14.7117 8.66391 14.8769 8.71614C15.0421 8.76838 15.1805 8.88287 15.2627 9.03535L16 10.5087L16.7374 9.03535C16.8165 8.87735 16.955 8.7572 17.1227 8.70133C17.2903 8.64545 17.4733 8.65841 17.6314 8.73735ZM15.2547 12H12V21.3334H20V12H16.6667C16.6665 12.1501 16.6157 12.2957 16.5225 12.4133C16.4294 12.5309 16.2992 12.6137 16.1532 12.6482C16.0071 12.6826 15.8537 12.6668 15.7177 12.6033C15.5818 12.5397 15.4713 12.4322 15.404 12.298L15.2547 12ZM17 17.3334C17.442 17.3334 17.866 17.5089 18.1785 17.8215C18.4911 18.1341 18.6667 18.558 18.6667 19V19.3334C18.6667 19.5102 18.5964 19.6797 18.4714 19.8048C18.3464 19.9298 18.1768 20 18 20C17.8232 20 17.6536 19.9298 17.5286 19.8048C17.4036 19.6797 17.3334 19.5102 17.3334 19.3334V19C17.3334 18.9116 17.2982 18.8268 17.2357 18.7643C17.1732 18.7018 17.0884 18.6667 17 18.6667H15C14.9116 18.6667 14.8268 18.7018 14.7643 18.7643C14.7018 18.8268 14.6667 18.9116 14.6667 19V19.3334C14.6667 19.5102 14.5964 19.6797 14.4714 19.8048C14.3464 19.9298 14.1768 20 14 20C13.8232 20 13.6536 19.9298 13.5286 19.8048C13.4036 19.6797 13.3334 19.5102 13.3334 19.3334V19C13.3334 18.558 13.5089 18.1341 13.8215 17.8215C14.1341 17.5089 14.558 17.3334 15 17.3334H17ZM16 14C16.3536 14 16.6928 14.1405 16.9428 14.3905C17.1929 14.6406 17.3334 14.9797 17.3334 15.3334C17.3334 15.687 17.1929 16.0261 16.9428 16.2762C16.6928 16.5262 16.3536 16.6667 16 16.6667C15.6464 16.6667 15.3073 16.5262 15.0572 16.2762C14.8072 16.0261 14.6667 15.687 14.6667 15.3334C14.6667 14.9797 14.8072 14.6406 15.0572 14.3905C15.3073 14.1405 15.6464 14 16 14Z" fill="black"/>
</svg>
