<svg width="32" height="32" viewBox="0 0 32 32" fill="none" xmlns="http://www.w3.org/2000/svg">
<path d="M16 0L25.4046 3.05573L31.2169 11.0557V20.9443L25.4046 28.9443L16 32L6.59544 28.9443L0.783095 20.9443V11.0557L6.59544 3.05573L16 0Z" fill="#D2F0FA"/>
<path d="M19.436 18.872C18.6956 18.872 18.0627 18.6384 17.5374 18.1713C17.012 17.7042 16.6927 17.0916 16.5794 16.3333H12.4567C12.3829 16.6333 12.2265 16.8878 11.9874 17.0967C11.7482 17.3056 11.4534 17.41 11.1027 17.41C10.7129 17.41 10.3805 17.2724 10.1054 16.9973C9.83024 16.7222 9.69246 16.3898 9.69202 16C9.69157 15.6102 9.82935 15.2778 10.1054 15.0027C10.3814 14.7276 10.7138 14.5898 11.1027 14.5893C11.4529 14.5893 11.7478 14.6938 11.9874 14.9027C12.2269 15.1116 12.3834 15.3662 12.4567 15.6667H16.5794C16.6922 14.9084 17.0116 14.2958 17.5374 13.8287C18.0631 13.3616 18.696 13.1282 19.436 13.1287C20.2302 13.1287 20.9074 13.4129 21.4674 13.9813C22.0274 14.5502 22.3074 15.2318 22.3074 16.026C22.3074 16.8024 22.0274 17.4709 21.4674 18.0313C20.9074 18.5918 20.2302 18.8718 19.436 18.8713M19.436 18.2047C20.0427 18.2047 20.562 17.9891 20.994 17.558C21.4251 17.126 21.6407 16.6067 21.6407 16C21.6407 15.3933 21.4251 14.8742 20.994 14.4427C20.5629 14.0111 20.0436 13.7951 19.436 13.7947C18.8285 13.7942 18.3091 14.01 17.878 14.442C17.4469 14.874 17.2314 15.3933 17.2314 16C17.2314 16.6067 17.4469 17.126 17.878 17.558C18.3091 17.99 18.8285 18.2056 19.436 18.2047Z" fill="black"/>
</svg>
