<svg width="32" height="32" viewBox="0 0 32 32" fill="none" xmlns="http://www.w3.org/2000/svg">
<path d="M16 0L25.4046 3.05573L31.2169 11.0557V20.9443L25.4046 28.9443L16 32L6.59544 28.9443L0.783095 20.9443V11.0557L6.59544 3.05573L16 0Z" fill="#D2F0FA"/>
<path d="M22.7075 12.5856L19.4144 9.2931C19.3215 9.20021 19.2113 9.12653 19.0899 9.07626C18.9686 9.026 18.8385 9.00012 18.7072 9.00012C18.5758 9.00012 18.4458 9.026 18.3244 9.07626C18.2031 9.12653 18.0928 9.20021 18 9.2931L9.29249 18C9.1996 18.0928 9.12592 18.2031 9.07565 18.3244C9.02539 18.4458 8.99951 18.5758 8.99951 18.7072C8.99951 18.8385 9.02539 18.9686 9.07565 19.0899C9.12592 19.2112 9.1996 19.3215 9.29249 19.4143L12.5856 22.7068C12.6785 22.7997 12.7887 22.8734 12.9101 22.9237C13.0314 22.9739 13.1615 22.9998 13.2928 22.9998C13.4241 22.9998 13.5542 22.9739 13.6755 22.9237C13.7969 22.8734 13.9071 22.7997 14 22.7068L22.7075 14C22.8004 13.9071 22.874 13.7969 22.9243 13.6755C22.9746 13.5542 23.0005 13.4241 23.0005 13.2928C23.0005 13.1614 22.9746 13.0314 22.9243 12.91C22.874 12.7887 22.8004 12.6785 22.7075 12.5856ZM13.2925 22L9.99999 18.7068L12 16.7068L13.6462 18.3537C13.6927 18.4002 13.7478 18.437 13.8085 18.4622C13.8692 18.4873 13.9343 18.5002 14 18.5002C14.0657 18.5002 14.1307 18.4873 14.1914 18.4622C14.2521 18.437 14.3073 18.4002 14.3537 18.3537C14.4002 18.3073 14.437 18.2521 14.4622 18.1914C14.4873 18.1307 14.5003 18.0657 14.5003 18C14.5003 17.9343 14.4873 17.8692 14.4622 17.8085C14.437 17.7478 14.4002 17.6927 14.3537 17.6462L12.7069 16L14 14.7068L15.6462 16.3537C15.7401 16.4475 15.8673 16.5002 16 16.5002C16.1327 16.5002 16.2599 16.4475 16.3537 16.3537C16.4476 16.2599 16.5003 16.1327 16.5003 16C16.5003 15.8673 16.4476 15.74 16.3537 15.6462L14.7069 14L16 12.7068L17.6462 14.3537C17.6927 14.4002 17.7478 14.437 17.8085 14.4622C17.8692 14.4873 17.9343 14.5002 18 14.5002C18.0657 14.5002 18.1307 14.4873 18.1914 14.4622C18.2521 14.437 18.3073 14.4002 18.3537 14.3537C18.4002 14.3073 18.437 14.2521 18.4622 14.1914C18.4873 14.1307 18.5003 14.0657 18.5003 14C18.5003 13.9343 18.4873 13.8692 18.4622 13.8085C18.437 13.7478 18.4002 13.6927 18.3537 13.6462L16.7069 12L18.7069 9.99997L22 13.2931L13.2925 22Z" fill="black"/>
</svg>
