<svg width="32" height="32" viewBox="0 0 32 32" fill="none" xmlns="http://www.w3.org/2000/svg">
<path d="M16 0L25.4046 3.05573L31.2169 11.0557V20.9443L25.4046 28.9443L16 32L6.59544 28.9443L0.783095 20.9443V11.0557L6.59544 3.05573L16 0Z" fill="#D2F0FA"/>
<path d="M10.0259 12.9524H22.0953M11.4286 9.90479H20.5715C20.9756 9.90479 21.3632 10.0653 21.6489 10.3511C21.9347 10.6369 22.0953 11.0245 22.0953 11.4286V20.5638C22.0953 20.968 21.9347 21.3556 21.6489 21.6413C21.3632 21.9271 20.9756 22.0876 20.5715 22.0876H11.4286C11.0245 22.0876 10.6369 21.9271 10.3511 21.6413C10.0653 21.3556 9.90479 20.968 9.90479 20.5638V11.4286C9.90479 11.0245 10.0653 10.6369 10.3511 10.3511C10.6369 10.0653 11.0245 9.90479 11.4286 9.90479Z" stroke="black" stroke-width="0.761905" stroke-linecap="round" stroke-linejoin="round"/>
<path fill-rule="evenodd" clip-rule="evenodd" d="M13.1932 18.0229V17.2008H13.8637C14.3726 17.2008 14.7185 16.8998 14.7185 16.4602C14.7185 16.0587 14.4023 15.7539 13.8781 15.7539C13.3349 15.7539 13.0004 16.0328 12.9631 16.5128H11.9239C11.9627 15.5231 12.7246 14.8572 13.9338 14.8572C15.1246 14.8572 15.7867 15.5155 15.7829 16.301C15.7791 16.9517 15.37 17.3798 14.7932 17.5208V17.5917C15.5406 17.6991 15.9947 18.1753 15.9947 18.8937C15.9947 19.8347 15.1094 20.5014 13.8964 20.5014C12.6835 20.5014 11.8576 19.8377 11.8096 18.8221H12.8846C12.9181 19.2762 13.3052 19.5665 13.882 19.5665C14.4511 19.5665 14.8496 19.2572 14.8496 18.7924C14.8496 18.3162 14.477 18.0229 13.8743 18.0229H13.1932ZM18.298 20.3635V16.0884H18.2317L16.9143 16.9966V15.9513L18.3018 14.9951H19.4218V20.3635H18.298Z" fill="black"/>
</svg>
