<svg width="32" height="32" viewBox="0 0 32 32" fill="none" xmlns="http://www.w3.org/2000/svg">
<path d="M19.4547 10.3333H12.4547C10.9819 10.3333 9.78802 11.5272 9.78802 13V19C9.78802 20.4727 10.9819 21.6666 12.4547 21.6666H19.4547C20.9275 21.6666 22.1214 20.4727 22.1214 19V13C22.1214 11.5272 20.9275 10.3333 19.4547 10.3333Z" stroke="black"/>
<path d="M9.81934 13.06L14.6227 15.8133C15.0252 16.0469 15.4823 16.1699 15.9477 16.1699C16.413 16.1699 16.8702 16.0469 17.2727 15.8133L22.0893 13.06" stroke="black" stroke-linecap="round" stroke-linejoin="round"/>
<path d="M16 0L25.4046 3.05573L31.2169 11.0557V20.9443L25.4046 28.9443L16 32L6.59544 28.9443L0.783095 20.9443V11.0557L6.59544 3.05573L16 0Z" fill="#D2F0FA"/>
<path d="M19.4547 10.3333H12.4547C10.9819 10.3333 9.78802 11.5272 9.78802 13V19C9.78802 20.4727 10.9819 21.6666 12.4547 21.6666H19.4547C20.9275 21.6666 22.1214 20.4727 22.1214 19V13C22.1214 11.5272 20.9275 10.3333 19.4547 10.3333Z" stroke="black"/>
<path d="M9.81934 13.06L14.6227 15.8133C15.0252 16.0469 15.4823 16.1699 15.9477 16.1699C16.413 16.1699 16.8702 16.0469 17.2727 15.8133L22.0893 13.06" stroke="black" stroke-linecap="round" stroke-linejoin="round"/>
</svg>
