<svg width="32" height="32" viewBox="0 0 32 32" fill="none" xmlns="http://www.w3.org/2000/svg">
<path d="M16.0007 27.9997V19.9997M16.0007 11.9997V10.6663C16.0007 9.61151 15.6879 8.58036 15.1018 7.7033C14.5158 6.82624 13.6828 6.14265 12.7083 5.73899C11.7338 5.33532 10.6614 5.2297 9.62684 5.43549C8.59227 5.64128 7.64196 6.14923 6.89608 6.89511C6.1502 7.64099 5.64225 8.5913 5.43647 9.62586C5.23068 10.6604 5.3363 11.7328 5.73996 12.7073C6.14363 13.6819 6.82722 14.5148 7.70428 15.1008C8.58134 15.6869 9.61249 15.9997 10.6673 15.9997H28.0007" stroke="#4BBAC1" stroke-width="2.66667" stroke-linecap="round" stroke-linejoin="round"/>
<path d="M22.668 21.3327L28.0013 15.9993L22.668 10.666" stroke="#4BBAC1" stroke-width="2.66667" stroke-linecap="round" stroke-linejoin="round"/>
</svg>
