<svg width="12" height="12" viewBox="0 0 12 12" fill="none" xmlns="http://www.w3.org/2000/svg">
<path d="M5.88489 1.69067C5.03913 1.69067 4.21236 1.94147 3.50913 2.41135C2.80591 2.88123 2.25781 3.54909 1.93415 4.33047C1.6105 5.11185 1.52581 5.97166 1.69081 6.80117C1.85581 7.63068 2.26308 8.39263 2.86113 8.99068C3.45917 9.58872 4.22112 9.99599 5.05063 10.161C5.88014 10.326 6.73995 10.2413 7.52134 9.91765C8.30272 9.59399 8.97057 9.0459 9.44045 8.34267C9.91033 7.63945 10.1611 6.81268 10.1611 5.96692C10.16 4.83313 9.7091 3.74611 8.9074 2.94441C8.10569 2.1427 7.01867 1.69181 5.88489 1.69067ZM8.42455 4.98894V5.26519C8.42456 5.28633 8.42033 5.30726 8.41211 5.32674C8.40389 5.34622 8.39185 5.36385 8.37671 5.3786C8.36156 5.39335 8.34361 5.40492 8.32392 5.41261C8.30422 5.42031 8.28319 5.42398 8.26205 5.42341C7.81055 5.39151 7.3786 5.22664 7.02066 4.9496V6.97141C7.02056 7.19517 6.97589 7.41667 6.88925 7.62298C6.80261 7.8293 6.67575 8.01628 6.51606 8.17303C6.35506 8.33388 6.16359 8.46098 5.95285 8.54689C5.74211 8.6328 5.51634 8.67579 5.28878 8.67335C4.83117 8.67269 4.39195 8.49313 4.06492 8.17303C3.85683 7.96324 3.70695 7.70289 3.63002 7.41759C3.55309 7.13229 3.55177 6.83188 3.62618 6.54592C3.69417 6.27139 3.83144 6.01909 4.02515 5.8134C4.16961 5.63683 4.35171 5.49478 4.55814 5.39763C4.76456 5.30049 4.99009 5.25071 5.21822 5.25193H5.56887V5.98017C5.56903 6.00132 5.56467 6.02226 5.5561 6.0416C5.54752 6.06093 5.53492 6.07822 5.51914 6.0923C5.50336 6.10638 5.48476 6.11694 5.46458 6.12326C5.44439 6.12959 5.4231 6.13154 5.4021 6.12899C5.1985 6.06783 4.97912 6.08812 4.79019 6.18556C4.60125 6.28301 4.45754 6.45001 4.38933 6.65135C4.32113 6.8527 4.33376 7.07266 4.42457 7.26487C4.51538 7.45708 4.67727 7.60652 4.87612 7.68169C4.99158 7.74797 5.12072 7.78689 5.25329 7.79587C5.35592 7.80014 5.45855 7.78731 5.55604 7.75653C5.71881 7.70161 5.86038 7.59728 5.96103 7.45808C6.06168 7.31887 6.11638 7.15173 6.11752 6.97996V3.29598C6.11752 3.25522 6.13368 3.21613 6.16245 3.18727C6.19123 3.15841 6.23028 3.14214 6.27103 3.14203H6.87612C6.91544 3.14208 6.95324 3.15717 6.98179 3.1842C7.01033 3.21124 7.02745 3.24817 7.02964 3.28742C7.0517 3.4761 7.11162 3.65839 7.20582 3.82335C7.30002 3.98831 7.42656 4.13256 7.57785 4.24744C7.7823 4.40091 8.02511 4.49502 8.27958 4.51941C8.3177 4.52267 8.35334 4.53963 8.37992 4.56714C8.40649 4.59466 8.42219 4.63087 8.42412 4.66908L8.42455 4.98894Z" fill="black"/>
</svg>
